<svg xmlns="http://www.w3.org/2000/svg" xmlns:xlink="http://www.w3.org/1999/xlink" width="1080" zoomAndPan="magnify" viewBox="0 0 810 637.499986" height="850" preserveAspectRatio="xMidYMid meet" version="1.0"><defs><clipPath id="79e432c5d5"><path d="M 138.25 54.414062 L 178 54.414062 L 178 94 L 138.25 94 Z M 138.25 54.414062 " clip-rule="nonzero"/></clipPath><clipPath id="9beddd6b8d"><path d="M 261 54.414062 L 301 54.414062 L 301 94 L 261 94 Z M 261 54.414062 " clip-rule="nonzero"/></clipPath><clipPath id="2a3a6c0ee2"><path d="M 385 54.414062 L 425 54.414062 L 425 94 L 385 94 Z M 385 54.414062 " clip-rule="nonzero"/></clipPath><clipPath id="0e1d28fbed"><path d="M 509 54.414062 L 549 54.414062 L 549 94 L 509 94 Z M 509 54.414062 " clip-rule="nonzero"/></clipPath><clipPath id="d819140d16"><path d="M 632 54.414062 L 671.828125 54.414062 L 671.828125 94 L 632 94 Z M 632 54.414062 " clip-rule="nonzero"/></clipPath><clipPath id="4368b6adb8"><path d="M 138.25 176 L 178 176 L 178 216 L 138.25 216 Z M 138.25 176 " clip-rule="nonzero"/></clipPath><clipPath id="4a19b9059f"><path d="M 632 176 L 671.828125 176 L 671.828125 216 L 632 216 Z M 632 176 " clip-rule="nonzero"/></clipPath><clipPath id="7e756ecb0b"><path d="M 138.25 299 L 178 299 L 178 338 L 138.25 338 Z M 138.25 299 " clip-rule="nonzero"/></clipPath><clipPath id="4f51daf21f"><path d="M 632 299 L 671.828125 299 L 671.828125 338 L 632 338 Z M 632 299 " clip-rule="nonzero"/></clipPath><clipPath id="cdd7fd7943"><path d="M 138.25 421 L 178 421 L 178 461 L 138.25 461 Z M 138.25 421 " clip-rule="nonzero"/></clipPath><clipPath id="4d11892534"><path d="M 632 421 L 671.828125 421 L 671.828125 461 L 632 461 Z M 632 421 " clip-rule="nonzero"/></clipPath><clipPath id="363ad58664"><path d="M 138.25 543.285156 L 177.195312 543.285156 L 177.195312 582.386719 L 138.25 582.386719 Z M 138.25 543.285156 " clip-rule="nonzero"/></clipPath><clipPath id="5ea833e936"><path d="M 261.753906 543.285156 L 300.964844 543.285156 L 300.964844 582.386719 L 261.753906 582.386719 Z M 261.753906 543.285156 " clip-rule="nonzero"/></clipPath><clipPath id="5493dc2696"><path d="M 385.523438 543.285156 L 424.46875 543.285156 L 424.46875 582.386719 L 385.523438 582.386719 Z M 385.523438 543.285156 " clip-rule="nonzero"/></clipPath><clipPath id="38cef4bf64"><path d="M 509.03125 543.285156 L 548.242188 543.285156 L 548.242188 582.386719 L 509.03125 582.386719 Z M 509.03125 543.285156 " clip-rule="nonzero"/></clipPath><clipPath id="098416f099"><path d="M 632.800781 543.285156 L 671.746094 543.285156 L 671.746094 582.386719 L 632.800781 582.386719 Z M 632.800781 543.285156 " clip-rule="nonzero"/></clipPath></defs><g clip-path="url(#79e432c5d5)"><path fill="#38b6ff" d="M 177.164062 74.058594 C 177.164062 84.804688 168.453125 93.511719 157.707031 93.511719 C 146.960938 93.511719 138.25 84.804688 138.25 74.058594 C 138.25 63.3125 146.960938 54.601562 157.707031 54.601562 C 168.453125 54.601562 177.164062 63.3125 177.164062 74.058594 " fill-opacity="1" fill-rule="nonzero"/></g><g clip-path="url(#9beddd6b8d)"><path fill="#38b6ff" d="M 300.808594 74.058594 C 300.808594 84.804688 292.097656 93.511719 281.351562 93.511719 C 270.605469 93.511719 261.894531 84.804688 261.894531 74.058594 C 261.894531 63.3125 270.605469 54.601562 281.351562 54.601562 C 292.097656 54.601562 300.808594 63.3125 300.808594 74.058594 " fill-opacity="1" fill-rule="nonzero"/></g><g clip-path="url(#2a3a6c0ee2)"><path fill="#38b6ff" d="M 424.453125 74.058594 C 424.453125 84.804688 415.742188 93.511719 404.996094 93.511719 C 394.25 93.511719 385.539062 84.804688 385.539062 74.058594 C 385.539062 63.3125 394.25 54.601562 404.996094 54.601562 C 415.742188 54.601562 424.453125 63.3125 424.453125 74.058594 " fill-opacity="1" fill-rule="nonzero"/></g><g clip-path="url(#0e1d28fbed)"><path fill="#38b6ff" d="M 548.101562 74.058594 C 548.101562 84.804688 539.390625 93.511719 528.644531 93.511719 C 517.898438 93.511719 509.1875 84.804688 509.1875 74.058594 C 509.1875 63.3125 517.898438 54.601562 528.644531 54.601562 C 539.390625 54.601562 548.101562 63.3125 548.101562 74.058594 " fill-opacity="1" fill-rule="nonzero"/></g><g clip-path="url(#d819140d16)"><path fill="#38b6ff" d="M 671.746094 74.058594 C 671.746094 84.804688 663.035156 93.511719 652.289062 93.511719 C 641.542969 93.511719 632.835938 84.804688 632.835938 74.058594 C 632.835938 63.3125 641.542969 54.601562 652.289062 54.601562 C 663.035156 54.601562 671.746094 63.3125 671.746094 74.058594 " fill-opacity="1" fill-rule="nonzero"/></g><g clip-path="url(#4368b6adb8)"><path fill="#38b6ff" d="M 177.164062 196.277344 C 177.164062 207.019531 168.453125 215.734375 157.707031 215.734375 C 146.960938 215.734375 138.25 207.019531 138.25 196.277344 C 138.25 185.527344 146.960938 176.816406 157.707031 176.816406 C 168.453125 176.816406 177.164062 185.527344 177.164062 196.277344 " fill-opacity="1" fill-rule="nonzero"/></g><path fill="#38b6ff" d="M 300.808594 196.277344 C 300.808594 207.019531 292.097656 215.734375 281.351562 215.734375 C 270.605469 215.734375 261.894531 207.019531 261.894531 196.277344 C 261.894531 185.527344 270.605469 176.816406 281.351562 176.816406 C 292.097656 176.816406 300.808594 185.527344 300.808594 196.277344 " fill-opacity="1" fill-rule="nonzero"/><path fill="#38b6ff" d="M 424.453125 196.277344 C 424.453125 207.019531 415.742188 215.734375 404.996094 215.734375 C 394.25 215.734375 385.539062 207.019531 385.539062 196.277344 C 385.539062 185.527344 394.25 176.816406 404.996094 176.816406 C 415.742188 176.816406 424.453125 185.527344 424.453125 196.277344 " fill-opacity="1" fill-rule="nonzero"/><path fill="#38b6ff" d="M 548.101562 196.277344 C 548.101562 207.019531 539.390625 215.734375 528.644531 215.734375 C 517.898438 215.734375 509.1875 207.019531 509.1875 196.277344 C 509.1875 185.527344 517.898438 176.816406 528.644531 176.816406 C 539.390625 176.816406 548.101562 185.527344 548.101562 196.277344 " fill-opacity="1" fill-rule="nonzero"/><g clip-path="url(#4a19b9059f)"><path fill="#38b6ff" d="M 671.746094 196.277344 C 671.746094 207.019531 663.035156 215.734375 652.289062 215.734375 C 641.542969 215.734375 632.835938 207.019531 632.835938 196.277344 C 632.835938 185.527344 641.542969 176.816406 652.289062 176.816406 C 663.035156 176.816406 671.746094 185.527344 671.746094 196.277344 " fill-opacity="1" fill-rule="nonzero"/></g><g clip-path="url(#7e756ecb0b)"><path fill="#38b6ff" d="M 177.164062 318.492188 C 177.164062 329.238281 168.453125 337.949219 157.707031 337.949219 C 146.960938 337.949219 138.25 329.238281 138.25 318.492188 C 138.25 307.746094 146.960938 299.035156 157.707031 299.035156 C 168.453125 299.035156 177.164062 307.746094 177.164062 318.492188 " fill-opacity="1" fill-rule="nonzero"/></g><path fill="#38b6ff" d="M 300.808594 318.492188 C 300.808594 329.238281 292.097656 337.949219 281.351562 337.949219 C 270.605469 337.949219 261.894531 329.238281 261.894531 318.492188 C 261.894531 307.746094 270.605469 299.035156 281.351562 299.035156 C 292.097656 299.035156 300.808594 307.746094 300.808594 318.492188 " fill-opacity="1" fill-rule="nonzero"/><path fill="#38b6ff" d="M 424.453125 318.492188 C 424.453125 329.238281 415.742188 337.949219 404.996094 337.949219 C 394.25 337.949219 385.539062 329.238281 385.539062 318.492188 C 385.539062 307.746094 394.25 299.035156 404.996094 299.035156 C 415.742188 299.035156 424.453125 307.746094 424.453125 318.492188 " fill-opacity="1" fill-rule="nonzero"/><path fill="#38b6ff" d="M 548.101562 318.492188 C 548.101562 329.238281 539.390625 337.949219 528.644531 337.949219 C 517.898438 337.949219 509.1875 329.238281 509.1875 318.492188 C 509.1875 307.746094 517.898438 299.035156 528.644531 299.035156 C 539.390625 299.035156 548.101562 307.746094 548.101562 318.492188 " fill-opacity="1" fill-rule="nonzero"/><g clip-path="url(#4f51daf21f)"><path fill="#38b6ff" d="M 671.746094 318.492188 C 671.746094 329.238281 663.035156 337.949219 652.289062 337.949219 C 641.542969 337.949219 632.835938 329.238281 632.835938 318.492188 C 632.835938 307.746094 641.542969 299.035156 652.289062 299.035156 C 663.035156 299.035156 671.746094 307.746094 671.746094 318.492188 " fill-opacity="1" fill-rule="nonzero"/></g><g clip-path="url(#cdd7fd7943)"><path fill="#38b6ff" d="M 177.164062 440.710938 C 177.164062 451.457031 168.453125 460.167969 157.707031 460.167969 C 146.960938 460.167969 138.25 451.457031 138.25 440.710938 C 138.25 429.964844 146.960938 421.253906 157.707031 421.253906 C 168.453125 421.253906 177.164062 429.964844 177.164062 440.710938 " fill-opacity="1" fill-rule="nonzero"/></g><path fill="#38b6ff" d="M 300.808594 440.710938 C 300.808594 451.457031 292.097656 460.167969 281.351562 460.167969 C 270.605469 460.167969 261.894531 451.457031 261.894531 440.710938 C 261.894531 429.964844 270.605469 421.253906 281.351562 421.253906 C 292.097656 421.253906 300.808594 429.964844 300.808594 440.710938 " fill-opacity="1" fill-rule="nonzero"/><path fill="#38b6ff" d="M 424.453125 440.710938 C 424.453125 451.457031 415.742188 460.167969 404.996094 460.167969 C 394.25 460.167969 385.539062 451.457031 385.539062 440.710938 C 385.539062 429.964844 394.25 421.253906 404.996094 421.253906 C 415.742188 421.253906 424.453125 429.964844 424.453125 440.710938 " fill-opacity="1" fill-rule="nonzero"/><path fill="#38b6ff" d="M 548.101562 440.710938 C 548.101562 451.457031 539.390625 460.167969 528.644531 460.167969 C 517.898438 460.167969 509.1875 451.457031 509.1875 440.710938 C 509.1875 429.964844 517.898438 421.253906 528.644531 421.253906 C 539.390625 421.253906 548.101562 429.964844 548.101562 440.710938 " fill-opacity="1" fill-rule="nonzero"/><g clip-path="url(#4d11892534)"><path fill="#38b6ff" d="M 671.746094 440.710938 C 671.746094 451.457031 663.035156 460.167969 652.289062 460.167969 C 641.542969 460.167969 632.835938 451.457031 632.835938 440.710938 C 632.835938 429.964844 641.542969 421.253906 652.289062 421.253906 C 663.035156 421.253906 671.746094 429.964844 671.746094 440.710938 " fill-opacity="1" fill-rule="nonzero"/></g><g clip-path="url(#363ad58664)"><path fill="#38b6ff" d="M 177.164062 562.929688 C 177.164062 573.675781 168.453125 582.386719 157.707031 582.386719 C 146.960938 582.386719 138.25 573.675781 138.25 562.929688 C 138.25 552.183594 146.960938 543.46875 157.707031 543.46875 C 168.453125 543.46875 177.164062 552.183594 177.164062 562.929688 " fill-opacity="1" fill-rule="nonzero"/></g><g clip-path="url(#5ea833e936)"><path fill="#38b6ff" d="M 300.808594 562.929688 C 300.808594 573.675781 292.097656 582.386719 281.351562 582.386719 C 270.605469 582.386719 261.894531 573.675781 261.894531 562.929688 C 261.894531 552.183594 270.605469 543.46875 281.351562 543.46875 C 292.097656 543.46875 300.808594 552.183594 300.808594 562.929688 " fill-opacity="1" fill-rule="nonzero"/></g><g clip-path="url(#5493dc2696)"><path fill="#38b6ff" d="M 424.453125 562.929688 C 424.453125 573.675781 415.742188 582.386719 404.996094 582.386719 C 394.25 582.386719 385.539062 573.675781 385.539062 562.929688 C 385.539062 552.183594 394.25 543.46875 404.996094 543.46875 C 415.742188 543.46875 424.453125 552.183594 424.453125 562.929688 " fill-opacity="1" fill-rule="nonzero"/></g><g clip-path="url(#38cef4bf64)"><path fill="#38b6ff" d="M 548.101562 562.929688 C 548.101562 573.675781 539.390625 582.386719 528.644531 582.386719 C 517.898438 582.386719 509.1875 573.675781 509.1875 562.929688 C 509.1875 552.183594 517.898438 543.46875 528.644531 543.46875 C 539.390625 543.46875 548.101562 552.183594 548.101562 562.929688 " fill-opacity="1" fill-rule="nonzero"/></g><g clip-path="url(#098416f099)"><path fill="#38b6ff" d="M 671.746094 562.929688 C 671.746094 573.675781 663.035156 582.386719 652.289062 582.386719 C 641.542969 582.386719 632.835938 573.675781 632.835938 562.929688 C 632.835938 552.183594 641.542969 543.46875 652.289062 543.46875 C 663.035156 543.46875 671.746094 552.183594 671.746094 562.929688 " fill-opacity="1" fill-rule="nonzero"/></g></svg>