<svg xmlns="http://www.w3.org/2000/svg" xmlns:xlink="http://www.w3.org/1999/xlink" width="1080" zoomAndPan="magnify" viewBox="0 0 810 637.499986" height="850" preserveAspectRatio="xMidYMid meet" version="1.0"><defs><clipPath id="40b9e442bf"><path d="M 9.75 233.929688 L 800.226562 233.929688 L 800.226562 274.1875 L 9.75 274.1875 Z M 9.75 233.929688 " clip-rule="nonzero"/></clipPath><clipPath id="eabaf6f4f1"><path d="M 9.75 285.519531 L 800.226562 285.519531 L 800.226562 325.777344 L 9.75 325.777344 Z M 9.75 285.519531 " clip-rule="nonzero"/></clipPath><clipPath id="be5af9e5d8"><path d="M 9.75 337.109375 L 800.226562 337.109375 L 800.226562 377.066406 L 9.75 377.066406 Z M 9.75 337.109375 " clip-rule="nonzero"/></clipPath></defs><g clip-path="url(#40b9e442bf)"><path fill="#805ad5" d="M 698.105469 274.015625 C 672.386719 274.015625 659.414062 265.714844 646.871094 257.6875 C 634.871094 250.003906 623.53125 242.75 600.390625 242.75 C 577.253906 242.75 565.914062 250.003906 553.914062 257.6875 C 541.371094 265.714844 528.398438 274.015625 502.683594 274.015625 C 476.964844 274.015625 464 265.714844 451.453125 257.6875 C 439.453125 250.003906 428.117188 242.75 404.980469 242.75 C 381.84375 242.75 370.503906 250.003906 358.503906 257.6875 C 345.960938 265.714844 332.988281 274.015625 307.273438 274.015625 C 281.554688 274.015625 268.585938 265.714844 256.042969 257.6875 C 244.042969 250.003906 232.703125 242.75 209.566406 242.75 C 186.429688 242.75 175.09375 250.003906 163.089844 257.6875 C 150.546875 265.714844 137.578125 274.015625 111.859375 274.015625 C 86.144531 274.015625 73.175781 265.714844 60.632812 257.6875 C 48.628906 250.003906 37.292969 242.75 14.160156 242.75 C 11.722656 242.75 9.75 240.773438 9.75 238.339844 C 9.75 235.90625 11.722656 233.933594 14.160156 233.933594 C 39.875 233.933594 52.84375 242.234375 65.386719 250.261719 C 77.386719 257.941406 88.726562 265.199219 111.859375 265.199219 C 134.996094 265.199219 146.335938 257.941406 158.339844 250.261719 C 170.878906 242.234375 183.851562 233.933594 209.566406 233.933594 C 235.285156 233.933594 248.253906 242.234375 260.796875 250.261719 C 272.800781 257.941406 284.136719 265.199219 307.273438 265.199219 C 330.410156 265.199219 341.746094 257.941406 353.75 250.261719 C 366.292969 242.234375 379.261719 233.933594 404.980469 233.933594 C 430.695312 233.933594 443.664062 242.234375 456.207031 250.261719 C 468.210938 257.941406 479.546875 265.199219 502.683594 265.199219 C 525.820312 265.199219 537.160156 257.941406 549.160156 250.261719 C 561.707031 242.234375 574.675781 233.933594 600.390625 233.933594 C 626.109375 233.933594 639.078125 242.234375 651.625 250.261719 C 663.628906 257.941406 674.964844 265.199219 698.105469 265.199219 C 721.242188 265.199219 732.582031 257.941406 744.585938 250.261719 C 757.128906 242.234375 770.101562 233.933594 795.816406 233.933594 C 798.253906 233.933594 800.226562 235.90625 800.226562 238.339844 C 800.226562 240.773438 798.253906 242.75 795.816406 242.75 C 772.679688 242.75 761.34375 250.003906 749.335938 257.6875 C 736.792969 265.714844 723.824219 274.015625 698.105469 274.015625 " fill-opacity="1" fill-rule="nonzero"/></g><g clip-path="url(#eabaf6f4f1)"><path fill="#805ad5" d="M 698.105469 325.664062 C 672.386719 325.664062 659.414062 317.363281 646.871094 309.335938 C 634.871094 301.652344 623.53125 294.394531 600.390625 294.394531 C 577.253906 294.394531 565.914062 301.652344 553.914062 309.335938 C 541.371094 317.363281 528.398438 325.664062 502.683594 325.664062 C 476.964844 325.664062 464 317.363281 451.453125 309.335938 C 439.453125 301.652344 428.117188 294.394531 404.980469 294.394531 C 381.84375 294.394531 370.503906 301.652344 358.503906 309.335938 C 345.960938 317.363281 332.988281 325.664062 307.273438 325.664062 C 281.554688 325.664062 268.585938 317.363281 256.042969 309.335938 C 244.042969 301.652344 232.703125 294.394531 209.566406 294.394531 C 186.429688 294.394531 175.09375 301.652344 163.089844 309.335938 C 150.546875 317.363281 137.578125 325.664062 111.859375 325.664062 C 86.144531 325.664062 73.175781 317.363281 60.632812 309.335938 C 48.628906 301.652344 37.292969 294.394531 14.160156 294.394531 C 11.722656 294.394531 9.75 292.421875 9.75 289.988281 C 9.75 287.550781 11.722656 285.578125 14.160156 285.578125 C 39.875 285.578125 52.84375 293.878906 65.386719 301.90625 C 77.386719 309.589844 88.726562 316.847656 111.859375 316.847656 C 134.996094 316.847656 146.335938 309.589844 158.339844 301.90625 C 170.878906 293.878906 183.851562 285.578125 209.566406 285.578125 C 235.285156 285.578125 248.253906 293.878906 260.796875 301.90625 C 272.800781 309.589844 284.136719 316.847656 307.273438 316.847656 C 330.410156 316.847656 341.746094 309.589844 353.75 301.90625 C 366.292969 293.878906 379.261719 285.578125 404.980469 285.578125 C 430.695312 285.578125 443.664062 293.878906 456.207031 301.90625 C 468.210938 309.589844 479.546875 316.847656 502.683594 316.847656 C 525.820312 316.847656 537.160156 309.589844 549.160156 301.90625 C 561.707031 293.878906 574.675781 285.578125 600.390625 285.578125 C 626.109375 285.578125 639.078125 293.878906 651.625 301.90625 C 663.628906 309.589844 674.964844 316.847656 698.105469 316.847656 C 721.242188 316.847656 732.582031 309.589844 744.585938 301.90625 C 757.128906 293.878906 770.101562 285.578125 795.816406 285.578125 C 798.253906 285.578125 800.226562 287.550781 800.226562 289.988281 C 800.226562 292.421875 798.253906 294.394531 795.816406 294.394531 C 772.679688 294.394531 761.34375 301.652344 749.335938 309.335938 C 736.792969 317.363281 723.824219 325.664062 698.105469 325.664062 " fill-opacity="1" fill-rule="nonzero"/></g><g clip-path="url(#be5af9e5d8)"><path fill="#805ad5" d="M 698.105469 377.308594 C 672.386719 377.308594 659.414062 369.007812 646.871094 360.980469 C 634.871094 353.300781 623.53125 346.042969 600.390625 346.042969 C 577.253906 346.042969 565.914062 353.300781 553.914062 360.980469 C 541.371094 369.007812 528.398438 377.308594 502.683594 377.308594 C 476.964844 377.308594 464 369.007812 451.453125 360.980469 C 439.453125 353.300781 428.117188 346.042969 404.980469 346.042969 C 381.84375 346.042969 370.503906 353.300781 358.503906 360.980469 C 345.960938 369.007812 332.988281 377.308594 307.273438 377.308594 C 281.554688 377.308594 268.585938 369.007812 256.042969 360.980469 C 244.042969 353.300781 232.703125 346.042969 209.566406 346.042969 C 186.429688 346.042969 175.09375 353.300781 163.089844 360.980469 C 150.546875 369.007812 137.578125 377.308594 111.859375 377.308594 C 86.144531 377.308594 73.175781 369.007812 60.632812 360.980469 C 48.628906 353.300781 37.292969 346.042969 14.160156 346.042969 C 11.722656 346.042969 9.75 344.070312 9.75 341.636719 C 9.75 339.199219 11.722656 337.226562 14.160156 337.226562 C 39.875 337.226562 52.84375 345.527344 65.386719 353.554688 C 77.386719 361.238281 88.726562 368.492188 111.859375 368.492188 C 134.996094 368.492188 146.335938 361.238281 158.339844 353.554688 C 170.878906 345.527344 183.851562 337.226562 209.566406 337.226562 C 235.285156 337.226562 248.253906 345.527344 260.796875 353.554688 C 272.800781 361.238281 284.136719 368.492188 307.273438 368.492188 C 330.410156 368.492188 341.746094 361.238281 353.75 353.554688 C 366.292969 345.527344 379.261719 337.226562 404.980469 337.226562 C 430.695312 337.226562 443.664062 345.527344 456.207031 353.554688 C 468.210938 361.238281 479.546875 368.492188 502.683594 368.492188 C 525.820312 368.492188 537.160156 361.238281 549.160156 353.554688 C 561.707031 345.527344 574.675781 337.226562 600.390625 337.226562 C 626.109375 337.226562 639.078125 345.527344 651.625 353.554688 C 663.628906 361.238281 674.964844 368.492188 698.105469 368.492188 C 721.242188 368.492188 732.582031 361.238281 744.585938 353.554688 C 757.128906 345.527344 770.101562 337.226562 795.816406 337.226562 C 798.253906 337.226562 800.226562 339.199219 800.226562 341.636719 C 800.226562 344.070312 798.253906 346.042969 795.816406 346.042969 C 772.679688 346.042969 761.34375 353.300781 749.335938 360.980469 C 736.792969 369.007812 723.824219 377.308594 698.105469 377.308594 " fill-opacity="1" fill-rule="nonzero"/></g></svg>