<svg xmlns="http://www.w3.org/2000/svg" xmlns:xlink="http://www.w3.org/1999/xlink" width="1080" zoomAndPan="magnify" viewBox="0 0 810 637.499986" height="850" preserveAspectRatio="xMidYMid meet" version="1.0"><defs><clipPath id="20fe699bff"><path d="M 52 198 L 192 198 L 192 439.550781 L 52 439.550781 Z M 52 198 " clip-rule="nonzero"/></clipPath><clipPath id="629394a335"><path d="M 147 198 L 286 198 L 286 439.550781 L 147 439.550781 Z M 147 198 " clip-rule="nonzero"/></clipPath><clipPath id="673f3c59a4"><path d="M 241 198 L 381 198 L 381 439.550781 L 241 439.550781 Z M 241 198 " clip-rule="nonzero"/></clipPath><clipPath id="7b0c795adf"><path d="M 336 198 L 475 198 L 475 439.550781 L 336 439.550781 Z M 336 198 " clip-rule="nonzero"/></clipPath><clipPath id="3d395f51be"><path d="M 431 198 L 570 198 L 570 439.550781 L 431 439.550781 Z M 431 198 " clip-rule="nonzero"/></clipPath><clipPath id="5596bb4abf"><path d="M 525 198 L 664 198 L 664 439.550781 L 525 439.550781 Z M 525 198 " clip-rule="nonzero"/></clipPath><clipPath id="279e4f9a2e"><path d="M 620 198 L 758.703125 198 L 758.703125 439.550781 L 620 439.550781 Z M 620 198 " clip-rule="nonzero"/></clipPath></defs><g clip-path="url(#20fe699bff)"><path fill="#8c52ff" d="M 65.507812 439.398438 C 62.121094 439.398438 58.730469 438.03125 56.246094 435.359375 C 51.511719 430.246094 51.808594 422.25 56.921875 417.511719 L 160.230469 321.738281 L 56.667969 220.304688 C 51.679688 215.421875 51.597656 207.425781 56.480469 202.457031 C 61.363281 197.46875 69.359375 197.386719 74.324219 202.269531 L 187.335938 312.964844 C 189.796875 315.382812 191.164062 318.707031 191.121094 322.160156 C 191.082031 325.609375 189.609375 328.894531 187.082031 331.25 L 74.09375 436.03125 C 71.671875 438.285156 68.578125 439.398438 65.507812 439.398438 Z M 65.507812 439.398438 " fill-opacity="1" fill-rule="nonzero"/></g><g clip-path="url(#629394a335)"><path fill="#8c52ff" d="M 160.0625 439.398438 C 156.671875 439.398438 153.285156 438.03125 150.800781 435.359375 C 146.066406 430.246094 146.359375 422.25 151.476562 417.511719 L 254.78125 321.738281 L 151.222656 220.304688 C 146.234375 215.421875 146.152344 207.425781 151.03125 202.457031 C 155.914062 197.46875 163.914062 197.386719 168.878906 202.269531 L 281.886719 312.964844 C 284.351562 315.382812 285.71875 318.707031 285.675781 322.160156 C 285.632812 325.609375 284.160156 328.894531 281.636719 331.25 L 168.625 436.03125 C 166.207031 438.285156 163.113281 439.398438 160.039062 439.398438 Z M 160.0625 439.398438 " fill-opacity="1" fill-rule="nonzero"/></g><g clip-path="url(#673f3c59a4)"><path fill="#8c52ff" d="M 254.613281 439.398438 C 251.226562 439.398438 247.839844 438.03125 245.355469 435.359375 C 240.621094 430.246094 240.914062 422.25 246.027344 417.511719 L 349.335938 321.738281 L 245.777344 220.304688 C 240.789062 215.421875 240.703125 207.425781 245.585938 202.457031 C 250.46875 197.46875 258.464844 197.386719 263.433594 202.269531 L 376.441406 312.964844 C 378.902344 315.382812 380.273438 318.707031 380.230469 322.160156 C 380.1875 325.609375 378.714844 328.894531 376.1875 331.25 L 263.179688 436.03125 C 260.757812 438.285156 257.667969 439.398438 254.59375 439.398438 Z M 254.613281 439.398438 " fill-opacity="1" fill-rule="nonzero"/></g><g clip-path="url(#7b0c795adf)"><path fill="#8c52ff" d="M 349.1875 439.398438 C 345.800781 439.398438 342.414062 438.03125 339.929688 435.359375 C 335.195312 430.246094 335.488281 422.25 340.601562 417.511719 L 443.910156 321.738281 L 340.351562 220.324219 C 335.363281 215.441406 335.277344 207.445312 340.160156 202.480469 C 345.042969 197.492188 353.039062 197.40625 358.007812 202.289062 L 471.015625 312.984375 C 473.480469 315.40625 474.847656 318.730469 474.804688 322.179688 C 474.761719 325.632812 473.289062 328.914062 470.765625 331.273438 L 357.753906 436.054688 C 355.335938 438.304688 352.242188 439.421875 349.167969 439.421875 Z M 349.1875 439.398438 " fill-opacity="1" fill-rule="nonzero"/></g><g clip-path="url(#3d395f51be)"><path fill="#8c52ff" d="M 443.742188 439.398438 C 440.355469 439.398438 436.964844 438.03125 434.484375 435.359375 C 429.746094 430.246094 430.042969 422.25 435.15625 417.511719 L 538.464844 321.738281 L 434.902344 220.324219 C 429.917969 215.441406 429.832031 207.445312 434.714844 202.480469 C 439.597656 197.492188 447.59375 197.40625 452.558594 202.289062 L 565.570312 312.984375 C 568.03125 315.40625 569.398438 318.730469 569.359375 322.179688 C 569.316406 325.632812 567.84375 328.914062 565.316406 331.273438 L 452.308594 436.054688 C 449.886719 438.304688 446.792969 439.421875 443.722656 439.421875 Z M 443.742188 439.398438 " fill-opacity="1" fill-rule="nonzero"/></g><g clip-path="url(#5596bb4abf)"><path fill="#8c52ff" d="M 538.316406 439.398438 C 534.929688 439.398438 531.539062 438.03125 529.058594 435.359375 C 524.324219 430.246094 524.617188 422.25 529.730469 417.511719 L 633.039062 321.738281 L 529.480469 220.324219 C 524.492188 215.441406 524.40625 207.445312 529.289062 202.480469 C 534.171875 197.492188 542.167969 197.40625 547.136719 202.289062 L 660.144531 312.984375 C 662.605469 315.40625 663.976562 318.730469 663.933594 322.179688 C 663.890625 325.632812 662.417969 328.914062 659.890625 331.273438 L 546.882812 436.054688 C 544.460938 438.304688 541.367188 439.421875 538.296875 439.421875 Z M 538.316406 439.398438 " fill-opacity="1" fill-rule="nonzero"/></g><g clip-path="url(#279e4f9a2e)"><path fill="#8c52ff" d="M 632.871094 439.398438 C 629.484375 439.398438 626.09375 438.03125 623.609375 435.359375 C 618.875 430.246094 619.171875 422.25 624.285156 417.511719 L 727.59375 321.738281 L 624.03125 220.324219 C 619.042969 215.441406 618.960938 207.445312 623.84375 202.480469 C 628.726562 197.492188 636.722656 197.40625 641.6875 202.289062 L 754.699219 312.984375 C 757.160156 315.40625 758.527344 318.730469 758.484375 322.179688 C 758.445312 325.632812 756.972656 328.914062 754.445312 331.273438 L 641.4375 436.054688 C 639.015625 438.304688 635.921875 439.421875 632.851562 439.421875 Z M 632.871094 439.398438 " fill-opacity="1" fill-rule="nonzero"/></g></svg>