<svg xmlns="http://www.w3.org/2000/svg" xmlns:xlink="http://www.w3.org/1999/xlink" width="1080" zoomAndPan="magnify" viewBox="0 0 810 637.499986" height="850" preserveAspectRatio="xMidYMid meet" version="1.0"><defs><clipPath id="0b06aa7615"><path d="M 136.441406 49.941406 L 405 49.941406 L 405 319 L 136.441406 319 Z M 136.441406 49.941406 " clip-rule="nonzero"/></clipPath><clipPath id="0484e6e774"><path d="M 136.441406 318 L 405 318 L 405 587.269531 L 136.441406 587.269531 Z M 136.441406 318 " clip-rule="nonzero"/></clipPath><clipPath id="0fb1c7bb35"><path d="M 404 49.941406 L 673.769531 49.941406 L 673.769531 319 L 404 319 Z M 404 49.941406 " clip-rule="nonzero"/></clipPath><clipPath id="622004f768"><path d="M 404 318 L 673.769531 318 L 673.769531 587.269531 L 404 587.269531 Z M 404 318 " clip-rule="nonzero"/></clipPath></defs><g clip-path="url(#0b06aa7615)"><path fill="#8c52ff" d="M 136.425781 49.925781 L 136.425781 318.496094 L 404.996094 318.496094 Z M 136.425781 49.925781 " fill-opacity="1" fill-rule="nonzero"/></g><g clip-path="url(#0484e6e774)"><path fill="#8c52ff" d="M 136.425781 587.066406 L 404.996094 587.066406 L 136.425781 318.496094 Z M 136.425781 587.066406 " fill-opacity="1" fill-rule="nonzero"/></g><g clip-path="url(#0fb1c7bb35)"><path fill="#8c52ff" d="M 404.996094 49.925781 L 404.996094 318.496094 L 673.5625 318.496094 Z M 404.996094 49.925781 " fill-opacity="1" fill-rule="nonzero"/></g><g clip-path="url(#622004f768)"><path fill="#8c52ff" d="M 404.996094 587.066406 L 673.5625 587.066406 L 404.996094 318.496094 Z M 404.996094 587.066406 " fill-opacity="1" fill-rule="nonzero"/></g></svg>