<svg xmlns="http://www.w3.org/2000/svg" xmlns:xlink="http://www.w3.org/1999/xlink" width="1080" zoomAndPan="magnify" viewBox="0 0 810 637.499986" height="850" preserveAspectRatio="xMidYMid meet" version="1.0"><defs><clipPath id="9d043d7d82"><path d="M 212.625 227 L 575.339844 227 L 575.339844 410 L 212.625 410 Z M 212.625 227 " clip-rule="nonzero"/></clipPath><clipPath id="ac2bbd4bb5"><path d="M 212.625 27.015625 L 575.339844 27.015625 L 575.339844 209 L 212.625 209 Z M 212.625 27.015625 " clip-rule="nonzero"/></clipPath><clipPath id="1028d63325"><path d="M 212.625 428 L 575.339844 428 L 575.339844 610 L 212.625 610 Z M 212.625 428 " clip-rule="nonzero"/></clipPath></defs><g clip-path="url(#9d043d7d82)"><path fill="#8c52ff" d="M 212.726562 409.109375 C 212.726562 308.976562 293.894531 227.808594 394.027344 227.808594 C 494.160156 227.808594 575.332031 308.976562 575.332031 409.109375 C 575.332031 409.109375 212.710938 409.109375 212.710938 409.109375 Z M 212.726562 409.109375 " fill-opacity="1" fill-rule="nonzero"/></g><g clip-path="url(#ac2bbd4bb5)"><path fill="#abebff" d="M 212.726562 27.015625 C 212.726562 127.148438 293.894531 208.316406 394.027344 208.316406 C 494.160156 208.316406 575.34375 127.148438 575.34375 27.015625 C 575.34375 27.015625 212.726562 27.015625 212.726562 27.015625 Z M 212.726562 27.015625 " fill-opacity="1" fill-rule="nonzero"/></g><g clip-path="url(#1028d63325)"><path fill="#38b6ff" d="M 212.726562 609.902344 C 212.726562 509.769531 293.894531 428.597656 394.027344 428.597656 C 494.160156 428.597656 575.332031 509.769531 575.332031 609.902344 C 575.332031 609.902344 212.710938 609.902344 212.710938 609.902344 Z M 212.726562 609.902344 " fill-opacity="1" fill-rule="nonzero"/></g></svg>