<svg xmlns="http://www.w3.org/2000/svg" xmlns:xlink="http://www.w3.org/1999/xlink" width="1080" zoomAndPan="magnify" viewBox="0 0 810 637.499986" height="850" preserveAspectRatio="xMidYMid meet" version="1.0"><defs><clipPath id="318d0e8ef1"><path d="M 146 115 L 745.667969 115 L 745.667969 538 L 146 538 Z M 146 115 " clip-rule="nonzero"/></clipPath><clipPath id="7875c6a5b8"><path d="M 51.710938 323 L 341 323 L 341 538 L 51.710938 538 Z M 51.710938 323 " clip-rule="nonzero"/></clipPath></defs><g clip-path="url(#318d0e8ef1)"><path fill="#38b6ff" d="M 745.972656 271.835938 C 745.972656 356.136719 677.539062 428.539062 589.265625 428.539062 L 523.808594 428.539062 L 481.160156 521.769531 C 477.195312 530.695312 467.277344 537.636719 457.359375 537.636719 L 357.1875 537.636719 L 456.367188 323.40625 L 589.265625 323.40625 C 611.085938 323.40625 640.839844 305.554688 640.839844 271.835938 C 640.839844 245.054688 619.019531 220.261719 589.265625 220.261719 L 146.925781 220.261719 L 188.578125 130.007812 C 192.546875 121.082031 202.464844 115.128906 212.382812 115.128906 L 589.265625 115.128906 C 679.519531 115.128906 745.972656 189.515625 745.972656 271.835938 Z M 745.972656 271.835938 " fill-opacity="1" fill-rule="nonzero"/></g><g clip-path="url(#7875c6a5b8)"><path fill="#8c52ff" d="M 340.324219 323.40625 L 248.089844 521.769531 C 244.121094 530.695312 234.203125 537.636719 224.285156 537.636719 L 125.105469 537.636719 L 175.6875 428.539062 L 51.710938 428.539062 L 93.367188 338.285156 C 97.335938 329.359375 106.261719 323.40625 117.171875 323.40625 Z M 340.324219 323.40625 " fill-opacity="1" fill-rule="nonzero"/></g></svg>