<svg xmlns="http://www.w3.org/2000/svg" xmlns:xlink="http://www.w3.org/1999/xlink" width="1080" zoomAndPan="magnify" viewBox="0 0 810 637.499986" height="850" preserveAspectRatio="xMidYMid meet" version="1.0"><defs><clipPath id="f16cba86ba"><path d="M 90.628906 63.699219 L 639 63.699219 L 639 538 L 90.628906 538 Z M 90.628906 63.699219 " clip-rule="nonzero"/></clipPath><clipPath id="ca6d4d3706"><path d="M 255.054688 494 L 348 494 L 348 586.703125 L 255.054688 586.703125 Z M 255.054688 494 " clip-rule="nonzero"/></clipPath><clipPath id="4ebbcea4ef"><path d="M 190 381 L 395.800781 381 L 395.800781 586.703125 L 190 586.703125 Z M 190 381 " clip-rule="nonzero"/></clipPath><clipPath id="aeb7218079"><path d="M 172.183594 328.070312 L 443 328.070312 L 443 586.703125 L 172.183594 586.703125 Z M 172.183594 328.070312 " clip-rule="nonzero"/></clipPath><clipPath id="545a011ef5"><path d="M 190 298 L 490.507812 298 L 490.507812 586.703125 L 190 586.703125 Z M 190 298 " clip-rule="nonzero"/></clipPath><clipPath id="514ab0a9f9"><path d="M 207 268 L 538 268 L 538 586.703125 L 207 586.703125 Z M 207 268 " clip-rule="nonzero"/></clipPath><clipPath id="ef21582bec"><path d="M 224.800781 237.371094 L 583.902344 237.371094 L 583.902344 586.703125 L 224.800781 586.703125 Z M 224.800781 237.371094 " clip-rule="nonzero"/></clipPath><clipPath id="1d2f4c3baa"><path d="M 460 112 L 719.386719 112 L 719.386719 364 L 460 364 Z M 460 112 " clip-rule="nonzero"/></clipPath></defs><g clip-path="url(#f16cba86ba)"><path fill="#54c7eb" d="M 501.261719 63.859375 L 227.507812 63.859375 L 90.628906 300.78125 L 227.507812 537.699219 L 501.261719 537.699219 L 638.140625 300.78125 L 501.261719 63.859375 " fill-opacity="1" fill-rule="nonzero"/></g><g clip-path="url(#ca6d4d3706)"><path fill="#f15eb6" d="M 255.355469 494.277344 L 347.84375 586.703125 L 308.753906 586.703125 Z M 255.355469 494.277344 " fill-opacity="1" fill-rule="nonzero"/></g><g clip-path="url(#4ebbcea4ef)"><path fill="#f15eb6" d="M 190.457031 381.941406 L 395.359375 586.703125 L 364.023438 586.703125 L 233.246094 456.011719 L 190.457031 381.941406 " fill-opacity="1" fill-rule="nonzero"/></g><g clip-path="url(#aeb7218079)"><path fill="#f15eb6" d="M 184.292969 328.300781 L 442.867188 586.703125 L 411.539062 586.703125 L 172.820312 348.144531 L 184.292969 328.300781 " fill-opacity="1" fill-rule="nonzero"/></g><g clip-path="url(#545a011ef5)"><path fill="#f15eb6" d="M 201.683594 298.203125 L 490.378906 586.703125 L 459.046875 586.703125 L 190.214844 318.042969 L 201.683594 298.203125 " fill-opacity="1" fill-rule="nonzero"/></g><g clip-path="url(#514ab0a9f9)"><path fill="#f15eb6" d="M 219.074219 268.082031 L 537.902344 586.703125 L 506.558594 586.703125 L 207.601562 287.941406 L 219.074219 268.082031 " fill-opacity="1" fill-rule="nonzero"/></g><g clip-path="url(#ef21582bec)"><path fill="#f15eb6" d="M 236.464844 237.980469 L 583.574219 584.859375 L 582.507812 586.703125 L 554.089844 586.703125 L 224.988281 257.828125 L 236.464844 237.980469 " fill-opacity="1" fill-rule="nonzero"/></g><path fill="#f15eb6" d="M 253.855469 207.878906 L 600.960938 554.753906 L 589.5 574.613281 L 242.382812 227.722656 L 253.855469 207.878906 " fill-opacity="1" fill-rule="nonzero"/><path fill="#f15eb6" d="M 271.242188 177.78125 L 618.347656 524.652344 L 606.894531 544.515625 L 259.769531 197.621094 L 271.242188 177.78125 " fill-opacity="1" fill-rule="nonzero"/><path fill="#f15eb6" d="M 288.632812 147.679688 L 635.742188 494.554688 L 624.28125 514.414062 L 277.15625 167.519531 L 288.632812 147.679688 " fill-opacity="1" fill-rule="nonzero"/><path fill="#f15eb6" d="M 306.023438 117.574219 L 653.128906 464.453125 L 641.671875 484.3125 L 294.550781 137.417969 L 306.023438 117.574219 " fill-opacity="1" fill-rule="nonzero"/><path fill="#f15eb6" d="M 348.8125 112.855469 L 670.523438 434.351562 L 659.0625 454.214844 L 317.476562 112.855469 L 348.8125 112.855469 " fill-opacity="1" fill-rule="nonzero"/><path fill="#f15eb6" d="M 396.339844 112.855469 L 687.925781 404.246094 L 676.453125 424.109375 L 364.992188 112.855469 L 396.339844 112.855469 " fill-opacity="1" fill-rule="nonzero"/><path fill="#f15eb6" d="M 443.847656 112.855469 L 705.3125 374.144531 L 693.839844 393.992188 L 412.519531 112.855469 L 443.847656 112.855469 " fill-opacity="1" fill-rule="nonzero"/><path fill="#f15eb6" d="M 620.019531 177.78125 L 555.050781 112.855469 L 582.507812 112.855469 Z M 620.019531 177.78125 " fill-opacity="1" fill-rule="nonzero"/><path fill="#f15eb6" d="M 684.917969 290.113281 L 507.542969 112.855469 L 538.871094 112.855469 L 642.113281 216.027344 L 684.917969 290.113281 " fill-opacity="1" fill-rule="nonzero"/><g clip-path="url(#1d2f4c3baa)"><path fill="#f15eb6" d="M 719.386719 349.78125 L 711.230469 363.890625 L 460.027344 112.855469 L 491.363281 112.855469 L 707.011719 328.367188 L 719.386719 349.78125 " fill-opacity="1" fill-rule="nonzero"/></g></svg>