<svg xmlns="http://www.w3.org/2000/svg" xmlns:xlink="http://www.w3.org/1999/xlink" width="1080" zoomAndPan="magnify" viewBox="0 0 810 637.499986" height="850" preserveAspectRatio="xMidYMid meet" version="1.0"><defs><clipPath id="bd7aba28a7"><path d="M 369 63.699219 L 670.824219 63.699219 L 670.824219 365 L 369 365 Z M 369 63.699219 " clip-rule="nonzero"/></clipPath><clipPath id="51491024ce"><path d="M 139.492188 293 L 442 293 L 442 595 L 139.492188 595 Z M 139.492188 293 " clip-rule="nonzero"/></clipPath></defs><path fill="#8c52ff" d="M 646.578125 218.917969 L 515.285156 87.632812 C 496.191406 78.898438 475.878906 72.375 454.675781 68.359375 L 665.847656 279.53125 C 661.835938 258.328125 655.308594 238.015625 646.578125 218.917969 " fill-opacity="1" fill-rule="nonzero"/><g clip-path="url(#bd7aba28a7)"><path fill="#8c52ff" d="M 670.460938 325.484375 L 408.722656 63.746094 C 407.480469 63.730469 406.242188 63.699219 405 63.699219 C 393.023438 63.699219 381.234375 64.507812 369.675781 66.042969 L 668.164062 364.53125 C 669.699219 352.972656 670.507812 341.183594 670.507812 329.207031 C 670.507812 327.964844 670.476562 326.726562 670.460938 325.484375 " fill-opacity="1" fill-rule="nonzero"/></g><path fill="#8c52ff" d="M 304.394531 83.441406 L 650.761719 429.8125 C 654.859375 419.8125 658.363281 409.511719 661.234375 398.941406 L 335.265625 72.972656 C 324.695312 75.84375 314.394531 79.347656 304.394531 83.441406 " fill-opacity="1" fill-rule="nonzero"/><path fill="#8c52ff" d="M 251.097656 112.828125 L 621.378906 483.109375 C 627.164062 474.984375 632.496094 466.511719 637.355469 457.746094 L 276.460938 96.851562 C 267.695312 101.714844 259.222656 107.042969 251.097656 112.828125 " fill-opacity="1" fill-rule="nonzero"/><path fill="#8c52ff" d="M 207.433594 151.847656 L 582.359375 526.773438 C 589.613281 520.257812 596.503906 513.34375 603.003906 506.074219 L 228.132812 131.207031 C 220.863281 137.703125 213.949219 144.59375 207.433594 151.847656 " fill-opacity="1" fill-rule="nonzero"/><path fill="#8c52ff" d="M 172.976562 200.070312 L 534.136719 561.230469 C 542.882812 556.347656 551.332031 550.996094 559.4375 545.191406 L 189.015625 174.769531 C 183.210938 182.875 177.859375 191.324219 172.976562 200.070312 " fill-opacity="1" fill-rule="nonzero"/><path fill="#8c52ff" d="M 148.960938 258.742188 L 475.464844 585.242188 C 486.011719 582.351562 496.289062 578.820312 506.265625 574.703125 L 159.503906 227.941406 C 155.386719 237.917969 151.855469 248.199219 148.960938 258.742188 " fill-opacity="1" fill-rule="nonzero"/><g clip-path="url(#51491024ce)"><path fill="#8c52ff" d="M 139.492188 329.207031 C 139.492188 330.136719 139.515625 331.058594 139.527344 331.984375 L 402.222656 594.683594 C 403.148438 594.691406 404.070312 594.71875 405 594.71875 C 417.261719 594.71875 429.320312 593.867188 441.140625 592.257812 L 141.949219 293.066406 C 140.339844 304.886719 139.492188 316.949219 139.492188 329.207031 " fill-opacity="1" fill-rule="nonzero"/></g><path fill="#8c52ff" d="M 162.640625 437.785156 L 296.421875 571.566406 C 315.367188 580.0625 335.492188 586.402344 356.476562 590.277344 L 143.929688 377.726562 C 147.804688 398.714844 154.140625 418.839844 162.640625 437.785156 " fill-opacity="1" fill-rule="nonzero"/></svg>