<svg xmlns="http://www.w3.org/2000/svg" xmlns:xlink="http://www.w3.org/1999/xlink" width="1080" zoomAndPan="magnify" viewBox="0 0 810 637.499986" height="850" preserveAspectRatio="xMidYMid meet" version="1.0"><defs><clipPath id="8166dcd31d"><path d="M 115.710938 164 L 694.257812 164 L 694.257812 472.730469 L 115.710938 472.730469 Z M 115.710938 164 " clip-rule="nonzero"/></clipPath></defs><g clip-path="url(#8166dcd31d)"><path fill="#f15eb6" d="M 171.257812 210.496094 L 136.28125 230.683594 C 131.910156 233.167969 126.941406 233.167969 122.570312 230.683594 C 118.195312 228.148438 115.710938 223.828125 115.710938 218.808594 L 115.710938 178.429688 C 115.710938 173.410156 118.195312 169.089844 122.570312 166.554688 C 126.941406 164.015625 131.90625 164.015625 136.28125 166.554688 L 153.769531 176.648438 L 171.261719 186.738281 C 175.578125 189.277344 178.0625 193.597656 178.0625 198.613281 C 178.0625 203.632812 175.578125 207.960938 171.257812 210.496094 Z M 687.425781 450.277344 L 669.9375 460.371094 L 652.445312 470.46875 C 648.074219 473.003906 643.109375 473.003906 638.734375 470.46875 C 634.363281 467.929688 631.878906 463.613281 631.878906 458.59375 L 631.878906 418.214844 C 631.878906 413.195312 634.359375 408.875 638.734375 406.339844 C 643.105469 403.855469 648.070312 403.855469 652.445312 406.339844 L 669.9375 416.433594 L 687.425781 426.523438 C 691.746094 429.0625 694.28125 433.382812 694.28125 438.398438 C 694.28125 443.425781 691.746094 447.796875 687.425781 450.277344 Z M 687.425781 330.386719 L 669.9375 340.480469 L 652.445312 350.574219 C 648.074219 353.109375 643.109375 353.109375 638.734375 350.574219 C 634.363281 348.035156 631.878906 343.71875 631.878906 338.699219 L 631.878906 298.324219 C 631.878906 293.304688 634.359375 288.984375 638.734375 286.449219 C 643.105469 283.910156 648.070312 283.910156 652.445312 286.449219 L 669.9375 296.542969 L 687.425781 306.636719 C 691.746094 309.175781 694.28125 313.492188 694.28125 318.511719 C 694.28125 323.53125 691.746094 327.851562 687.425781 330.386719 Z M 558.359375 450.277344 L 540.867188 460.371094 L 523.378906 470.46875 C 519.058594 473.003906 514.039062 473.003906 509.667969 470.46875 C 505.347656 467.929688 502.808594 463.613281 502.808594 458.59375 L 502.808594 418.214844 C 502.808594 413.195312 505.347656 408.875 509.667969 406.339844 C 514.039062 403.855469 519.058594 403.855469 523.378906 406.339844 L 540.867188 416.433594 L 558.359375 426.523438 C 562.730469 429.0625 565.214844 433.382812 565.214844 438.398438 C 565.210938 443.425781 562.730469 447.796875 558.359375 450.277344 Z M 558.359375 330.386719 L 540.867188 340.480469 L 523.378906 350.574219 C 519.058594 353.109375 514.039062 353.109375 509.667969 350.574219 C 505.347656 348.035156 502.808594 343.71875 502.808594 338.699219 L 502.808594 298.324219 C 502.808594 293.304688 505.347656 288.984375 509.667969 286.449219 C 514.039062 283.910156 519.058594 283.910156 523.378906 286.449219 L 540.867188 296.542969 L 558.359375 306.636719 C 562.730469 309.175781 565.214844 313.492188 565.214844 318.511719 C 565.214844 323.53125 562.730469 327.851562 558.359375 330.386719 Z M 429.34375 450.277344 L 411.851562 460.371094 L 394.363281 470.46875 C 389.992188 473.003906 385.023438 473.003906 380.652344 470.46875 C 376.28125 467.929688 373.792969 463.613281 373.792969 458.59375 L 373.792969 418.214844 C 373.792969 413.195312 376.277344 408.875 380.652344 406.339844 C 385.023438 403.855469 389.988281 403.855469 394.363281 406.339844 L 411.851562 416.433594 L 429.34375 426.523438 C 433.664062 429.0625 436.199219 433.382812 436.199219 438.398438 C 436.199219 443.425781 433.664062 447.796875 429.34375 450.277344 Z M 429.34375 330.386719 L 411.851562 340.480469 L 394.363281 350.574219 C 389.992188 353.109375 385.023438 353.109375 380.652344 350.574219 C 376.28125 348.035156 373.792969 343.71875 373.792969 338.699219 L 373.792969 298.324219 C 373.792969 293.304688 376.277344 288.984375 380.652344 286.449219 C 385.023438 283.910156 389.988281 283.910156 394.363281 286.449219 L 411.851562 296.542969 L 429.34375 306.636719 C 433.664062 309.175781 436.199219 313.492188 436.199219 318.511719 C 436.199219 323.53125 433.664062 327.851562 429.34375 330.386719 Z M 300.273438 450.277344 L 282.78125 460.371094 L 265.292969 470.46875 C 260.972656 473.003906 255.953125 473.003906 251.582031 470.46875 C 247.261719 467.929688 244.726562 463.613281 244.726562 458.59375 L 244.726562 418.214844 C 244.726562 413.195312 247.261719 408.875 251.582031 406.339844 C 255.953125 403.855469 260.972656 403.855469 265.292969 406.339844 L 282.78125 416.433594 L 300.273438 426.523438 C 304.644531 429.0625 307.128906 433.382812 307.128906 438.398438 C 307.128906 443.425781 304.648438 447.796875 300.273438 450.277344 Z M 300.273438 330.386719 L 282.78125 340.480469 L 265.292969 350.574219 C 260.972656 353.109375 255.953125 353.109375 251.582031 350.574219 C 247.261719 348.035156 244.726562 343.71875 244.726562 338.699219 L 244.726562 298.324219 C 244.726562 293.304688 247.261719 288.984375 251.582031 286.449219 C 255.953125 283.910156 260.972656 283.910156 265.292969 286.449219 L 282.78125 296.542969 L 300.273438 306.636719 C 304.644531 309.175781 307.128906 313.492188 307.128906 318.511719 C 307.128906 323.53125 304.648438 327.851562 300.273438 330.386719 Z M 171.257812 450.277344 L 153.769531 460.371094 L 136.277344 470.46875 C 131.90625 473.003906 126.941406 473.003906 122.566406 470.46875 C 118.191406 467.929688 115.710938 463.613281 115.710938 458.59375 L 115.710938 418.214844 C 115.710938 413.195312 118.195312 408.875 122.570312 406.339844 C 126.941406 403.855469 131.90625 403.855469 136.28125 406.339844 L 153.769531 416.433594 L 171.261719 426.523438 C 175.578125 429.0625 178.0625 433.382812 178.0625 438.398438 C 178.0625 443.425781 175.578125 447.796875 171.257812 450.277344 Z M 171.257812 330.386719 L 153.769531 340.480469 L 136.277344 350.574219 C 131.90625 353.109375 126.941406 353.109375 122.566406 350.574219 C 118.191406 348.035156 115.710938 343.71875 115.710938 338.703125 L 115.710938 298.324219 C 115.710938 293.304688 118.195312 288.984375 122.570312 286.449219 C 126.941406 283.910156 131.90625 283.910156 136.28125 286.449219 L 153.769531 296.542969 L 171.261719 306.636719 C 175.578125 309.175781 178.0625 313.492188 178.0625 318.511719 C 178.0625 323.53125 175.578125 327.851562 171.257812 330.386719 Z M 687.425781 210.496094 L 669.9375 220.589844 L 652.445312 230.683594 C 648.074219 233.164062 643.109375 233.164062 638.734375 230.683594 C 634.363281 228.144531 631.878906 223.828125 631.878906 218.808594 L 631.878906 178.429688 C 631.878906 173.410156 634.359375 169.089844 638.734375 166.554688 C 643.105469 164.015625 648.070312 164.015625 652.445312 166.554688 L 669.9375 176.648438 L 687.425781 186.738281 C 691.746094 189.277344 694.28125 193.597656 694.28125 198.613281 C 694.28125 203.632812 691.746094 207.960938 687.425781 210.496094 Z M 558.359375 210.496094 L 540.867188 220.589844 L 523.378906 230.683594 C 519.058594 233.164062 514.039062 233.164062 509.667969 230.683594 C 505.347656 228.144531 502.808594 223.828125 502.808594 218.808594 L 502.808594 178.429688 C 502.808594 173.410156 505.347656 169.089844 509.667969 166.554688 C 514.039062 164.015625 519.058594 164.015625 523.378906 166.554688 L 540.867188 176.648438 L 558.359375 186.738281 C 562.730469 189.277344 565.214844 193.597656 565.214844 198.613281 C 565.214844 203.632812 562.730469 207.960938 558.359375 210.496094 Z M 429.34375 210.496094 L 411.851562 220.589844 L 394.363281 230.683594 C 389.992188 233.164062 385.023438 233.164062 380.652344 230.683594 C 376.28125 228.144531 373.792969 223.828125 373.792969 218.808594 L 373.792969 178.429688 C 373.792969 173.410156 376.277344 169.089844 380.652344 166.554688 C 385.023438 164.015625 389.988281 164.015625 394.363281 166.554688 L 411.851562 176.648438 L 429.34375 186.738281 C 433.664062 189.277344 436.199219 193.597656 436.199219 198.613281 C 436.199219 203.632812 433.664062 207.960938 429.34375 210.496094 Z M 300.273438 210.496094 L 282.78125 220.589844 L 265.292969 230.683594 C 260.972656 233.164062 255.953125 233.164062 251.582031 230.683594 C 247.261719 228.144531 244.726562 223.828125 244.726562 218.808594 L 244.726562 178.429688 C 244.726562 173.410156 247.261719 169.089844 251.582031 166.554688 C 255.953125 164.015625 260.972656 164.015625 265.292969 166.554688 L 282.78125 176.648438 L 300.273438 186.738281 C 304.644531 189.277344 307.128906 193.597656 307.128906 198.613281 C 307.128906 203.632812 304.648438 207.960938 300.273438 210.496094 Z M 300.273438 210.496094 " fill-opacity="1" fill-rule="evenodd"/></g></svg>