<svg width="50" height="53" viewBox="0 0 50 53" fill="none" xmlns="http://www.w3.org/2000/svg">
<path d="M42.5125 34.9075V16.9925C42.5 12.9775 39.82 7 32.4875 7V2L22.4875 9.5L32.4875 17V12C37.06 12 37.49 15.8475 37.5125 17V34.9075C33.9125 35.9925 31.2625 39.3 31.2625 43.25C31.2625 48.075 35.1875 52 40.0125 52C44.8375 52 48.7625 48.075 48.7625 43.25C48.7625 39.3 46.1125 35.9925 42.5125 34.9075ZM40.0125 47C37.945 47 36.2625 45.3175 36.2625 43.25C36.2625 41.1825 37.945 39.5 40.0125 39.5C42.08 39.5 43.7625 41.1825 43.7625 43.25C43.7625 45.3175 42.08 47 40.0125 47ZM18.7375 10.75C18.7375 5.925 14.8125 2 9.98755 2C5.16255 2 1.23755 5.925 1.23755 10.75C1.23755 14.7 3.88755 18.0075 7.48755 19.0925V34.9075C3.88755 35.9925 1.23755 39.3 1.23755 43.25C1.23755 48.075 5.16255 52 9.98755 52C14.8125 52 18.7375 48.075 18.7375 43.25C18.7375 39.3 16.0875 35.9925 12.4875 34.9075V19.0925C16.0875 18.0075 18.7375 14.7 18.7375 10.75ZM6.23755 10.75C6.23755 8.6825 7.92005 7 9.98755 7C12.055 7 13.7375 8.6825 13.7375 10.75C13.7375 12.8175 12.055 14.5 9.98755 14.5C7.92005 14.5 6.23755 12.8175 6.23755 10.75ZM13.7375 43.25C13.7375 45.3175 12.055 47 9.98755 47C7.92005 47 6.23755 45.3175 6.23755 43.25C6.23755 41.1825 7.92005 39.5 9.98755 39.5C12.055 39.5 13.7375 41.1825 13.7375 43.25Z" fill="#8C52FF" stroke="white" stroke-width="1.5"/>
</svg>
